<svg width="115" height="26" viewBox="0 0 115 26" fill="none" xmlns="http://www.w3.org/2000/svg">
<path d="M59.6944 10.7697C58.2297 10.7697 57.0579 11.5551 56.179 13.1258V10.8983H52.4219V22.8501H56.179V17.1954C56.179 16.1959 56.3914 15.4962 56.8162 15.0964C57.2556 14.6966 57.9074 14.4967 58.7716 14.4967H59.6944V10.7697Z" fill="white"/>
<path fill-rule="evenodd" clip-rule="evenodd" d="M60.8332 16.8956C60.8332 18.6805 61.3751 20.1441 62.459 21.2865C63.543 22.4288 64.8466 23 66.3699 23C67.8933 23 69.109 22.3717 70.0172 21.1151V22.8501H73.7743V10.8983H70.0172V12.4618C69.1823 11.3338 67.9812 10.7697 66.4139 10.7697C64.8612 10.7697 63.543 11.3481 62.459 12.5047C61.3751 13.647 60.8332 15.1107 60.8332 16.8956ZM70.0172 16.8742C70.0172 17.8166 69.7462 18.5448 69.2042 19.0589C68.6623 19.573 68.0398 19.83 67.3367 19.83C66.6336 19.83 66.0111 19.5801 65.4691 19.0803C64.9272 18.5663 64.6562 17.838 64.6562 16.8956C64.6562 15.9531 64.9272 15.2249 65.4691 14.7108C66.0111 14.1968 66.6336 13.9398 67.3367 13.9398C68.0398 13.9398 68.6623 14.1968 69.2042 14.7108C69.7462 15.2106 70.0172 15.9317 70.0172 16.8742Z" fill="white"/>
<path d="M82.3045 19.7871L79.5141 10.8983H75.5153L79.8656 22.8501H84.7433L89.0936 10.8983H85.0948L82.3045 19.7871Z" fill="white"/>
<path fill-rule="evenodd" clip-rule="evenodd" d="M91.6418 21.3293C92.7843 22.4431 94.249 23 96.036 23C97.4861 23 98.7385 22.6359 99.7931 21.9076C100.848 21.1651 101.551 20.1941 101.902 18.9946H97.8377C97.6619 19.2088 97.5154 19.3659 97.3982 19.4659C97.2957 19.5515 97.1273 19.6444 96.8929 19.7443C96.6585 19.83 96.2997 19.8728 95.8163 19.8728C95.3476 19.8728 94.9082 19.7086 94.498 19.3802C94.0879 19.0375 93.8462 18.602 93.773 18.0736H102.21C102.269 17.7166 102.298 17.3311 102.298 16.917C102.298 14.9893 101.705 13.4828 100.518 12.3976C99.3317 11.3124 97.8377 10.7697 96.036 10.7697C94.2344 10.7697 92.7623 11.3195 91.6198 12.419C90.4919 13.5185 89.928 14.9964 89.928 16.8527C89.928 18.7091 90.4992 20.2013 91.6418 21.3293ZM97.6399 14.4324C98.0793 14.7751 98.3284 15.2249 98.3869 15.7818H93.7949C93.8975 15.2249 94.1538 14.7751 94.5639 14.4324C94.9741 14.0754 95.4794 13.8969 96.08 13.8969C96.6805 13.8969 97.2005 14.0754 97.6399 14.4324Z" fill="white"/>
<path d="M114.407 22.2718C114.802 21.8862 115 21.415 115 20.8581C115 20.2869 114.802 19.8086 114.407 19.423C114.011 19.0375 113.521 18.8447 112.935 18.8447C112.363 18.8447 111.88 19.0375 111.485 19.423C111.089 19.8086 110.891 20.2869 110.891 20.8581C110.891 21.415 111.089 21.8862 111.485 22.2718C111.88 22.6573 112.363 22.8501 112.935 22.8501C113.521 22.8501 114.011 22.6573 114.407 22.2718Z" fill="white"/>
<path d="M38 7.81392V10.5984H42.1965V22.8501H45.9536V10.5984H50.1721V7.81392H38Z" fill="white"/>
<path d="M104.711 7V22.8501H108.468V7H104.711Z" fill="white"/>
<path fill-rule="evenodd" clip-rule="evenodd" d="M25.1432 18.5043C23.8679 19.8718 22.1144 20.5556 19.8826 20.5556H17.2864V5.44444H19.8826C22.1144 5.44444 23.8679 6.1282 25.1432 7.49572C26.4185 8.86325 27.0562 10.698 27.0562 13C27.0562 15.302 26.4185 17.1368 25.1432 18.5043Z" stroke="#EE6D52" stroke-width="2"/>
</svg>
