<svg width="1170" height="248" viewBox="0 0 1170 248" fill="none" xmlns="http://www.w3.org/2000/svg">
<rect width="1170" height="248" rx="16" fill="#34A5E4"/>
<g opacity="0.2">
<mask id="mask0" mask-type="alpha" maskUnits="userSpaceOnUse" x="0" y="0" width="1170" height="248">
<rect width="1170" height="248" rx="16" fill="#EE6D52"/>
</mask>
<g mask="url(#mask0)">
<path d="M63.2905 180.855C34.0399 157.926 14.8407 124.641 9.91658 88.3237C4.99249 52.0063 14.7468 15.631 37.0338 -12.8002C59.3207 -41.2313 92.3147 -59.3894 128.757 -63.2797C165.2 -67.1701 202.106 -56.474 231.357 -33.5447L199.193 7.48566C181.138 -6.66758 158.358 -13.2697 135.863 -10.8684C113.369 -8.46706 93.0035 2.74104 79.2468 20.2903C65.4901 37.8395 59.4692 60.2923 62.5086 82.7093C65.548 105.126 77.3988 125.671 95.4539 139.825L63.2905 180.855Z" fill="#9ACCF9"/>
<path d="M1019.95 -98.0856C1033.48 -75.0344 1037.54 -47.7055 1031.26 -22.1109C1024.98 3.48376 1008.87 25.2475 986.464 38.3927C964.059 51.5378 937.199 54.9876 911.793 47.983C886.387 40.9784 864.517 24.0933 850.993 1.04212L883.327 -17.9283C891.674 -3.69987 905.174 6.72254 920.856 11.0461C936.538 15.3698 953.117 13.2404 966.947 5.1265C980.777 -2.98739 990.724 -16.4212 994.6 -32.2195C998.477 -48.0179 995.965 -64.8868 987.617 -79.1152L1019.95 -98.0856Z" fill="#9ACCF9"/>
<path d="M642.158 316.337C663.192 299.849 676.998 275.915 680.538 249.8C684.079 223.685 677.065 197.529 661.039 177.085C645.013 156.64 621.288 143.583 595.083 140.786C568.878 137.989 542.34 145.68 521.307 162.168L544.434 191.672C557.417 181.494 573.798 176.747 589.973 178.474C606.148 180.2 620.793 188.26 630.685 200.879C640.577 213.498 644.906 229.643 642.721 245.763C640.535 261.882 632.014 276.656 619.031 286.833L642.158 316.337Z" fill="white" fill-opacity="0.42"/>
</g>
</g>
</svg>
