<svg width="207" height="45" viewBox="0 0 207 45" fill="none" xmlns="http://www.w3.org/2000/svg">
<path d="M198.593 25.7528C198.453 22.8137 196.637 20.0144 192.025 20.0144C187.972 20.0144 185.736 23.0936 185.457 25.7528H198.593ZM206 35.2702C204.462 40.3088 199.851 44.5076 192.724 44.5076C184.758 44.5076 177.631 38.7692 177.631 28.9719C177.631 19.7345 184.479 13.5762 191.885 13.5762C200.829 13.5762 206.279 19.3146 206.279 28.692C206.279 29.8117 206.139 31.0714 206.139 31.0714H185.317C185.457 34.9903 188.811 37.6495 192.584 37.6495C196.217 37.6495 198.313 35.83 199.152 33.1708L206 35.2702ZM155.272 26.8725C155.272 23.5135 157.228 20.8542 160.722 20.8542C164.495 20.8542 166.172 23.3735 166.172 26.5926V43.5279H173.998V25.193C173.998 18.7548 170.644 13.5762 163.517 13.5762C160.442 13.5762 156.949 14.9758 155.132 17.915V14.276H147.446V43.3879H155.272V26.8725ZM134.729 14.416H142.555V43.5279H134.729V14.416ZM138.642 0C141.297 0 143.533 2.23938 143.533 4.89864C143.533 7.5579 141.437 9.65731 138.642 9.65731C135.987 9.65731 133.751 7.41794 133.751 4.89864C133.751 2.23938 135.987 0 138.642 0V0ZM94.9016 26.8725C94.9016 23.5135 96.858 20.8542 100.352 20.8542C104.125 20.8542 105.802 23.3735 105.802 26.5926V43.5279H113.628V25.193C113.628 18.7548 110.274 13.5762 103.147 13.5762C100.072 13.5762 96.5785 14.9758 94.7618 17.915V14.276H87.0758V43.3879H94.9016V26.8725ZM74.0795 14.416H81.9052V43.5279H74.0795V14.416ZM77.8526 0C80.5078 0 82.7437 2.23938 82.7437 4.89864C82.7437 7.5579 80.6475 9.65731 77.8526 9.65731C75.1974 9.65731 72.9615 7.41794 72.9615 4.89864C73.1012 2.23938 75.1974 0 77.8526 0V0ZM55.4933 38.6292C52.9778 38.6292 51.7201 36.9497 51.7201 35.2702C51.7201 33.0308 53.2573 31.9111 55.3535 31.6312L61.9216 30.6515V31.9111C61.9216 36.9497 58.8472 38.6292 55.4933 38.6292ZM43.8944 35.6901C43.8944 40.3088 47.6675 44.5076 53.9561 44.5076C58.2882 44.5076 61.0831 42.5482 62.4805 40.1688C62.4805 41.2885 62.6203 42.8281 62.76 43.6679H70.0268C69.8871 42.6881 69.6076 40.5887 69.6076 39.0491V24.6331C69.6076 18.7548 66.1139 13.5762 56.8907 13.5762C49.0649 13.5762 44.8726 18.6148 44.4533 23.2335L51.4406 24.7731C51.7201 22.2538 53.5368 20.0144 57.0305 20.0144C60.3844 20.0144 61.9216 21.694 61.9216 23.7934C61.9216 24.7731 61.3626 25.6129 59.6856 25.8928L52.5586 27.0125C47.6675 27.5723 43.8944 30.5115 43.8944 35.6901ZM41.5187 22.2538C40.6802 22.1138 39.8417 21.9739 39.143 21.9739C35.0904 21.9739 31.5967 23.9333 31.5967 30.2316V43.5279H23.771V14.416H31.457V18.7548C33.2737 14.8359 37.1866 14.1361 39.702 14.1361C40.4007 14.1361 40.9597 14.1361 41.5187 14.276V22.2538ZM19.4388 14.8359V21.694H10.3554C11.1938 21.2741 11.8926 20.5743 12.5913 20.0144C13.9887 18.6148 14.967 16.9353 15.6657 14.8359H19.4388ZM2.94882 21.694H0.712891V14.8359H13.4298C12.5913 16.9353 11.3336 18.6148 9.51688 19.8745C7.83993 20.9942 5.60399 21.554 2.94882 21.694ZM17.0632 37.0897C18.0414 37.0897 19.0196 36.9497 19.4388 36.8098V43.3879C18.7401 43.6678 17.3426 44.0877 15.1067 44.0877C9.51688 44.0877 6.02323 40.7287 6.02323 35.1302V23.5135H13.7093V33.8706C13.7093 36.2499 14.8272 37.0897 17.0632 37.0897ZM13.7093 13.0164V6.15829H6.72196V10.2172C6.72196 11.3368 6.44247 12.3166 5.88349 13.0164H13.7093ZM130.397 37.0897H129C126.764 37.0897 125.646 36.2499 125.646 33.7306V1.25965H117.96V35.1302C117.96 40.7287 121.453 44.0877 127.043 44.0877C128.441 44.0877 129.559 43.9478 130.397 43.6679V37.0897Z" fill="#48D5B5"/>
</svg>
