<svg width="207" height="35" viewBox="0 0 207 35" fill="none" xmlns="http://www.w3.org/2000/svg">
<path d="M81.2109 3.13705C81.2109 1.40268 82.6087 -2.28882e-05 84.3293 -2.28882e-05C86.0558 -2.28882e-05 87.459 1.40268 87.459 3.13705C87.459 4.86945 86.0558 6.27368 84.3293 6.27368C82.6087 6.27368 81.2109 4.86924 81.2109 3.13705Z" fill="#273B7D"/>
<path d="M130.506 24.0045C130.506 22.2695 131.903 20.865 133.623 20.865C135.349 20.865 136.752 22.2695 136.752 24.0045C136.752 25.7351 135.349 27.1411 133.623 27.1411C131.903 27.1411 130.506 25.7354 130.506 24.0045Z" fill="#499FDD"/>
<path d="M29.9334 22.6487C27.2426 22.6487 25.3727 20.5086 25.3727 17.4502C25.3727 14.3924 27.2426 12.2536 29.9334 12.2536C32.6396 12.2536 34.5301 14.3924 34.5301 17.4502C34.5301 20.557 32.679 22.6489 29.9334 22.6489V22.6487ZM29.9334 7.68467C24.2407 7.68467 20.1094 11.7928 20.1094 17.4502C20.1094 23.1076 24.2407 27.2148 29.9334 27.2148C35.6474 27.2148 39.796 23.1076 39.796 17.4502C39.796 11.7928 35.6474 7.68467 29.9334 7.68467ZM75.1588 17.9385C74.9375 17.5215 74.6838 17.1684 74.4135 16.8882L74.2414 16.7052L74.4226 16.5313C74.6839 16.2554 74.951 15.9283 75.2086 15.5491L80.2322 8.06972H74.1337L70.3592 13.9204C70.1455 14.2342 69.7141 14.3924 69.0684 14.3924H68.2081V3.33121C68.2081 1.11875 66.8319 0.817596 65.3452 0.817596H62.8L62.8043 26.9272H68.2081V19.0954H68.7143C69.3303 19.0954 69.7499 19.1667 69.9422 19.5021L72.9231 25.1373C73.7558 26.6664 74.5857 26.9272 76.1468 26.9272H80.288L77.2038 21.8178L75.1588 17.9385ZM101.392 7.64283C98.6436 7.64283 96.8898 8.86575 95.907 9.89997L95.5788 10.2323L95.463 9.78033C95.1743 8.67246 94.2012 8.06296 92.7367 8.06296H90.3148L90.33 26.9207H95.697V18.2292C95.697 17.3794 95.8074 16.642 96.0317 15.9693C96.6291 13.9331 98.2956 12.667 100.378 12.667C102.054 12.667 102.708 13.5524 102.708 15.8407V24.0538C102.708 26.007 103.61 26.9207 105.562 26.9207H108.116L108.107 14.9268C108.107 10.1617 105.787 7.64283 101.394 7.64283H101.392ZM84.3994 8.07124H81.8556L81.873 22.6518H81.8712V26.925H84.5866C84.6207 26.925 84.6481 26.9287 84.6823 26.9287L85.9471 26.925H87.206V26.9176H87.2148L87.2257 10.934C87.2257 9.00543 86.3051 8.07124 84.4013 8.07124H84.3994ZM51.0147 22.6487C48.3241 22.6487 46.4505 20.5086 46.4505 17.4502C46.4505 14.3924 48.3241 12.2536 51.0147 12.2536C53.7152 12.2536 55.611 14.3924 55.611 17.4502C55.611 20.557 53.7605 22.6489 51.0147 22.6489V22.6487ZM51.0147 7.68467C45.3163 7.68467 41.1841 11.7928 41.1841 17.4502C41.1841 23.1076 45.3163 27.2148 51.0147 27.2148C56.7228 27.2148 60.8782 23.1076 60.8782 17.4502C60.8782 11.7928 56.7228 7.68467 51.0147 7.68467Z" fill="#273B7D"/>
<path d="M166.058 22.649C163.368 22.649 161.493 20.5088 161.493 17.4504C161.493 14.3927 163.368 12.2539 166.058 12.2539C168.759 12.2539 170.655 14.3927 170.655 17.4504C170.655 20.5572 168.804 22.6492 166.058 22.6492V22.649ZM166.058 7.68491C160.361 7.68491 156.229 11.793 156.229 17.4504C156.229 23.1079 160.361 27.2151 166.058 27.2151C171.767 27.2151 175.921 23.1079 175.921 17.4504C175.921 11.793 171.767 7.68491 166.058 7.68491Z" fill="#499FDD"/>
<path d="M119.424 21.8193C116.49 21.8193 115.445 19.2554 115.445 16.8527C115.445 15.794 115.713 12.3438 119.142 12.3438C120.846 12.3438 123.118 12.833 123.118 17.0303C123.118 20.9891 121.108 21.8193 119.424 21.8193ZM125.904 8.02066C124.886 8.02066 124.102 8.42751 123.709 9.17015L123.561 9.45845L123.312 9.24228C122.446 8.49135 120.892 7.60075 118.37 7.60075C113.351 7.60075 109.973 11.3759 109.973 16.9939C109.973 22.6051 113.469 26.5267 118.471 26.5267C120.18 26.5267 121.53 26.1274 122.6 25.3157L123.014 25.0041V25.5284C123.014 28.047 121.388 29.4364 118.44 29.4364C117.007 29.4364 115.703 29.0871 114.831 28.7703C113.692 28.4262 113.025 28.711 112.563 29.855L112.137 30.9106L111.534 32.4526L111.908 32.6517C113.795 33.6546 116.251 34.2532 118.471 34.2532C123.042 34.2532 128.379 31.91 128.379 25.3157L128.398 8.02066H125.905" fill="#273B7D"/>
<mask id="path-6-inside-1" fill="white">
<path d="M9.94677 22.4335L5.57782 22.4292V17.1977C5.57782 16.0796 6.01061 15.4982 6.96729 15.3644H9.94677C12.0734 15.3644 13.4474 16.7079 13.4489 18.8809C13.4474 21.111 12.1075 22.4322 9.94677 22.4335ZM5.57782 8.32107V6.9443C5.57782 5.73925 6.08695 5.16614 7.20421 5.09248H9.43974C11.357 5.09248 12.5054 6.24175 12.5054 8.16417C12.5054 9.63029 11.7193 11.3409 9.51026 11.3409H5.57782V8.32107ZM15.5266 13.5423L14.7367 13.0977L15.4262 12.5072C16.2279 11.8166 17.5722 10.2644 17.5722 7.58235C17.5722 3.4784 14.3939 0.829681 9.47467 0.829681H3.86087V0.828156H3.22171C1.76329 0.881762 0.596396 2.0696 0.580078 3.53942V26.8332H3.15637C3.1629 26.8345 3.16509 26.8332 3.16726 26.8345L9.58555 26.8332C15.0539 26.8332 18.5835 23.8521 18.5835 19.2346C18.5835 16.7486 17.4427 14.6231 15.5254 13.5423"/>
</mask>
<path d="M9.94677 22.4335L5.57782 22.4292V17.1977C5.57782 16.0796 6.01061 15.4982 6.96729 15.3644H9.94677C12.0734 15.3644 13.4474 16.7079 13.4489 18.8809C13.4474 21.111 12.1075 22.4322 9.94677 22.4335ZM5.57782 8.32107V6.9443C5.57782 5.73925 6.08695 5.16614 7.20421 5.09248H9.43974C11.357 5.09248 12.5054 6.24175 12.5054 8.16417C12.5054 9.63029 11.7193 11.3409 9.51026 11.3409H5.57782V8.32107ZM15.5266 13.5423L14.7367 13.0977L15.4262 12.5072C16.2279 11.8166 17.5722 10.2644 17.5722 7.58235C17.5722 3.4784 14.3939 0.829681 9.47467 0.829681H3.86087V0.828156H3.22171C1.76329 0.881762 0.596396 2.0696 0.580078 3.53942V26.8332H3.15637C3.1629 26.8345 3.16509 26.8332 3.16726 26.8345L9.58555 26.8332C15.0539 26.8332 18.5835 23.8521 18.5835 19.2346C18.5835 16.7486 17.4427 14.6231 15.5254 13.5423" fill="#273B7D"/>
<path d="M9.94677 22.4335L9.94737 23.4335L9.94577 23.4335L9.94677 22.4335ZM5.57782 22.4292L5.57682 23.4292L4.57782 23.4282V22.4292H5.57782ZM6.96729 15.3644L6.82879 14.3741L6.89771 14.3644H6.96729V15.3644ZM13.4489 18.8809L14.4489 18.8802L14.4489 18.8816L13.4489 18.8809ZM7.20421 5.09248L7.13843 4.09465L7.17128 4.09248H7.20421V5.09248ZM5.57782 11.3409V12.3409H4.57782V11.3409H5.57782ZM14.7367 13.0977L14.2462 13.9692L13.0005 13.2681L14.0862 12.3382L14.7367 13.0977ZM15.4262 12.5072L16.0788 13.2649L16.0767 13.2667L15.4262 12.5072ZM3.86087 0.829681V1.82968H2.86087V0.829681H3.86087ZM3.86087 0.828156V-0.171844H4.86087V0.828156H3.86087ZM3.22171 0.828156L3.18498 -0.171169L3.20334 -0.171844H3.22171V0.828156ZM0.580078 3.53942L-0.419984 3.53942L-0.41986 3.52832L0.580078 3.53942ZM0.580078 26.8332V27.8332H-0.419922V26.8332H0.580078ZM3.15637 26.8332V25.8332H3.25554L3.35278 25.8526L3.15637 26.8332ZM3.16726 26.8345L3.16747 27.8345L2.89001 27.8345L2.65218 27.6916L3.16726 26.8345ZM9.58555 26.8332L9.58535 25.8332H9.58555V26.8332ZM9.94577 23.4335L5.57682 23.4292L5.57882 21.4292L9.94776 21.4335L9.94577 23.4335ZM4.57782 22.4292V17.1977H6.57782V22.4292H4.57782ZM4.57782 17.1977C4.57782 16.5286 4.70435 15.8545 5.11559 15.3096C5.54647 14.7386 6.16886 14.4664 6.82879 14.3741L7.1058 16.3548C6.80905 16.3963 6.7367 16.4816 6.71201 16.5143C6.66769 16.5731 6.57782 16.7488 6.57782 17.1977H4.57782ZM6.96729 14.3644H9.94677V16.3644H6.96729V14.3644ZM9.94677 14.3644C11.2233 14.3644 12.3702 14.7718 13.2007 15.5995C14.0318 16.4279 14.448 17.5796 14.4489 18.8802L12.4489 18.8816C12.4483 18.0092 12.1767 17.4027 11.7888 17.0161C11.4003 16.6288 10.7969 16.3644 9.94677 16.3644V14.3644ZM14.4489 18.8816C14.448 20.1974 14.0483 21.361 13.217 22.1978C12.3851 23.0351 11.2329 23.4327 9.94737 23.4335L9.94616 21.4335C10.8214 21.433 11.4195 21.1694 11.7981 20.7882C12.1773 20.4066 12.4483 19.7944 12.4489 18.8802L14.4489 18.8816ZM4.57782 8.32107V6.9443H6.57782V8.32107H4.57782ZM4.57782 6.9443C4.57782 6.22137 4.72784 5.49385 5.22157 4.93321C5.72637 4.36001 6.42974 4.14137 7.13843 4.09465L7.26999 6.09032C6.86142 6.11725 6.7516 6.222 6.72251 6.25502C6.68236 6.30061 6.57782 6.46218 6.57782 6.9443H4.57782ZM7.20421 4.09248H9.43974V6.09248H7.20421V4.09248ZM9.43974 4.09248C10.5987 4.09248 11.6434 4.44379 12.3992 5.20089C13.1549 5.95781 13.5054 7.00362 13.5054 8.16417H11.5054C11.5054 7.40231 11.2817 6.91227 10.9839 6.61394C10.6862 6.31581 10.1981 6.09248 9.43974 6.09248V4.09248ZM13.5054 8.16417C13.5054 9.05566 13.2694 10.0841 12.6271 10.9142C11.9551 11.7829 10.9075 12.3409 9.51026 12.3409V10.3409C10.3221 10.3409 10.7721 10.0436 11.0453 9.69041C11.3483 9.29877 11.5054 8.7388 11.5054 8.16417H13.5054ZM9.51026 12.3409H5.57782V10.3409H9.51026V12.3409ZM4.57782 11.3409V8.32107H6.57782V11.3409H4.57782ZM15.0361 14.4137L14.2462 13.9692L15.2271 12.2262L16.017 12.6708L15.0361 14.4137ZM14.0862 12.3382L14.7757 11.7477L16.0767 13.2667L15.3872 13.8572L14.0862 12.3382ZM14.7736 11.7495C15.4313 11.183 16.5722 9.8856 16.5722 7.58235H18.5722C18.5722 10.6432 17.0246 12.4502 16.0788 13.2649L14.7736 11.7495ZM16.5722 7.58235C16.5722 5.80971 15.8964 4.40943 14.7278 3.43509C13.5408 2.44547 11.7628 1.82968 9.47467 1.82968V-0.170319C12.1058 -0.170319 14.3765 0.53825 16.0085 1.89898C17.6589 3.27499 18.5722 5.25104 18.5722 7.58235H16.5722ZM9.47467 1.82968H3.86087V-0.170319H9.47467V1.82968ZM2.86087 0.829681V0.828156H4.86087V0.829681H2.86087ZM3.86087 1.82816H3.22171V-0.171844H3.86087V1.82816ZM3.25844 1.82748C2.33139 1.86156 1.59039 2.61633 1.58002 3.55052L-0.41986 3.52832C-0.397595 1.52288 1.19519 -0.0980318 3.18498 -0.171169L3.25844 1.82748ZM1.58008 3.53942V26.8332H-0.419922V3.53942H1.58008ZM0.580078 25.8332H3.15637V27.8332H0.580078V25.8332ZM3.35278 25.8526C3.31105 25.8443 3.27032 25.839 3.23112 25.8362C3.19379 25.8336 3.16361 25.8338 3.16372 25.8338C3.16374 25.8338 3.16399 25.8338 3.16428 25.8338C3.16458 25.8338 3.16507 25.8338 3.16566 25.8338C3.1668 25.8338 3.16873 25.8338 3.17111 25.8338C3.17563 25.8339 3.18386 25.834 3.19413 25.8343C3.21356 25.8348 3.25114 25.8364 3.29798 25.8427C3.40513 25.857 3.54214 25.8931 3.68234 25.9773L2.65218 27.6916C2.71695 27.7305 2.78512 27.7615 2.85511 27.7844C2.92383 27.8069 2.98502 27.8187 3.03314 27.8251C3.07937 27.8313 3.1163 27.8328 3.13503 27.8334C3.15209 27.8339 3.16709 27.8338 3.16318 27.8338C3.16165 27.8338 3.12957 27.834 3.08992 27.8312C3.04841 27.8283 3.00496 27.8227 2.95997 27.8137L3.35278 25.8526ZM3.16706 25.8345L9.58535 25.8332L9.58576 27.8332L3.16747 27.8345L3.16706 25.8345ZM9.58555 25.8332C12.1454 25.8332 14.1466 25.1359 15.4899 24.0014C16.8161 22.8815 17.5835 21.2688 17.5835 19.2346H19.5835C19.5835 21.8179 18.5861 24.0045 16.7804 25.5295C14.9918 27.0399 12.4941 27.8332 9.58555 27.8332V25.8332ZM17.5835 19.2346C17.5835 17.0525 16.5904 15.2906 15.0343 14.4134L16.0165 12.6711C18.2949 13.9556 19.5835 16.4447 19.5835 19.2346H17.5835Z" fill="black" mask="url(#path-6-inside-1)"/>
<mask id="path-8-inside-2" fill="white">
<path d="M199.897 7.70437C197.67 7.70437 195.518 8.74882 194.135 10.5004L193.747 10.994L193.441 10.4418C192.448 8.62636 190.737 7.70437 188.358 7.70437C185.863 7.70437 184.19 9.09836 183.412 9.92708L182.904 10.4788L182.708 9.75318C182.424 8.70873 181.496 8.13344 180.089 8.13344H177.834L177.812 26.9181H182.937V18.6259C182.937 17.8996 183.027 17.1807 183.209 16.4294C183.699 14.4257 185.043 12.2705 187.303 12.486C188.697 12.6198 189.378 13.6987 189.378 15.7824V26.9181H194.54V18.6259C194.54 17.7183 194.624 17.0389 194.829 16.357C195.244 14.4442 196.648 12.4832 198.829 12.4832C200.407 12.4832 200.99 13.3782 200.99 15.7824V24.172C200.99 26.07 201.836 26.9181 203.729 26.9181H206.142L206.146 14.926C206.146 10.1354 204.04 7.70437 199.896 7.70437H199.897ZM153.262 20.396C153.247 20.4145 151.041 22.7438 148.137 22.7438C145.492 22.7438 142.819 21.118 142.819 17.4886C142.819 14.3551 144.891 12.165 147.857 12.165C148.821 12.165 149.916 12.5106 150.088 13.092L150.113 13.1901C150.508 14.5082 151.704 14.5789 151.939 14.5789L154.747 14.5819V12.1234C154.747 8.88066 150.629 7.70459 147.857 7.70459C141.931 7.70459 137.631 11.8371 137.631 17.5281C137.631 23.2167 141.884 27.3435 147.749 27.3435C152.837 27.3435 155.604 23.9935 155.63 23.9602L155.778 23.7787L153.554 20.084L153.262 20.3962"/>
</mask>
<path d="M199.897 7.70437C197.67 7.70437 195.518 8.74882 194.135 10.5004L193.747 10.994L193.441 10.4418C192.448 8.62636 190.737 7.70437 188.358 7.70437C185.863 7.70437 184.19 9.09836 183.412 9.92708L182.904 10.4788L182.708 9.75318C182.424 8.70873 181.496 8.13344 180.089 8.13344H177.834L177.812 26.9181H182.937V18.6259C182.937 17.8996 183.027 17.1807 183.209 16.4294C183.699 14.4257 185.043 12.2705 187.303 12.486C188.697 12.6198 189.378 13.6987 189.378 15.7824V26.9181H194.54V18.6259C194.54 17.7183 194.624 17.0389 194.829 16.357C195.244 14.4442 196.648 12.4832 198.829 12.4832C200.407 12.4832 200.99 13.3782 200.99 15.7824V24.172C200.99 26.07 201.836 26.9181 203.729 26.9181H206.142L206.146 14.926C206.146 10.1354 204.04 7.70437 199.896 7.70437H199.897ZM153.262 20.396C153.247 20.4145 151.041 22.7438 148.137 22.7438C145.492 22.7438 142.819 21.118 142.819 17.4886C142.819 14.3551 144.891 12.165 147.857 12.165C148.821 12.165 149.916 12.5106 150.088 13.092L150.113 13.1901C150.508 14.5082 151.704 14.5789 151.939 14.5789L154.747 14.5819V12.1234C154.747 8.88066 150.629 7.70459 147.857 7.70459C141.931 7.70459 137.631 11.8371 137.631 17.5281C137.631 23.2167 141.884 27.3435 147.749 27.3435C152.837 27.3435 155.604 23.9935 155.63 23.9602L155.778 23.7787L153.554 20.084L153.262 20.3962" fill="#499FDD"/>
<path d="M194.135 10.5004L193.35 9.88144L193.35 9.88097L194.135 10.5004ZM193.747 10.994L194.532 11.6129L193.6 12.796L192.871 11.4775L193.747 10.994ZM193.441 10.4418L192.566 10.9253L192.564 10.922L193.441 10.4418ZM183.412 9.92708L182.677 9.24937L182.683 9.24301L183.412 9.92708ZM182.904 10.4788L183.639 11.1565L182.411 12.4897L181.938 10.7393L182.904 10.4788ZM182.708 9.75318L183.673 9.49104L183.674 9.49274L182.708 9.75318ZM177.834 8.13344L176.834 8.13228L176.835 7.13344H177.834V8.13344ZM177.812 26.9181V27.9181H176.811L176.812 26.917L177.812 26.9181ZM182.937 26.9181H183.937V27.9181H182.937V26.9181ZM183.209 16.4294L182.237 16.1943L182.237 16.1918L183.209 16.4294ZM187.303 12.486L187.398 11.4905L187.399 11.4906L187.303 12.486ZM189.378 26.9181V27.9181H188.378V26.9181H189.378ZM194.54 26.9181H195.54V27.9181H194.54V26.9181ZM194.829 16.357L195.806 16.5693L195.798 16.6071L195.787 16.644L194.829 16.357ZM206.142 26.9181L207.142 26.9185L207.141 27.9181H206.142V26.9181ZM206.146 14.926L207.146 14.926L207.146 14.9263L206.146 14.926ZM150.088 13.092L151.047 12.8092L151.052 12.8259L151.056 12.8428L150.088 13.092ZM150.113 13.1901L149.155 13.4771L149.15 13.4583L149.145 13.4393L150.113 13.1901ZM151.939 14.5789L151.939 13.5789L151.94 13.5789L151.939 14.5789ZM154.747 14.5819H155.747V15.583L154.746 15.5819L154.747 14.5819ZM155.63 23.9602L154.841 23.3468L154.848 23.3377L154.855 23.3288L155.63 23.9602ZM155.778 23.7787L156.635 23.263L156.997 23.8651L156.554 24.4101L155.778 23.7787ZM153.554 20.084L152.824 19.4004L153.729 18.4347L154.411 19.5683L153.554 20.084ZM199.897 8.70437C197.977 8.70437 196.113 9.60814 194.921 11.1198L193.35 9.88097C194.922 7.8895 197.364 6.70437 199.897 6.70437V8.70437ZM194.921 11.1194L194.532 11.6129L192.961 10.375L193.35 9.88144L194.921 11.1194ZM192.871 11.4775L192.566 10.9253L194.317 9.95824L194.622 10.5104L192.871 11.4775ZM192.564 10.922C191.775 9.48079 190.437 8.70437 188.358 8.70437V6.70437C191.036 6.70437 193.12 7.77192 194.319 9.96157L192.564 10.922ZM188.358 8.70437C186.258 8.70437 184.83 9.87706 184.142 10.6111L182.683 9.24301C183.549 8.31965 185.468 6.70437 188.358 6.70437V8.70437ZM184.148 10.6048L183.639 11.1565L182.169 9.80115L182.677 9.24939L184.148 10.6048ZM181.938 10.7393L181.743 10.0136L183.674 9.49274L183.869 10.2184L181.938 10.7393ZM181.743 10.0153C181.667 9.73373 181.518 9.54086 181.294 9.402C181.051 9.25182 180.664 9.13344 180.089 9.13344V7.13344C180.921 7.13344 181.702 7.3027 182.346 7.70128C183.008 8.11118 183.466 8.72818 183.673 9.49104L181.743 10.0153ZM180.089 9.13344H177.834V7.13344H180.089V9.13344ZM178.834 8.1346L178.812 26.9193L176.812 26.917L176.834 8.13228L178.834 8.1346ZM177.812 25.9181H182.937V27.9181H177.812V25.9181ZM181.937 26.9181V18.6259H183.937V26.9181H181.937ZM181.937 18.6259C181.937 17.8142 182.038 17.0164 182.237 16.1943L184.181 16.6644C184.016 17.3451 183.937 17.985 183.937 18.6259H181.937ZM182.237 16.1918C182.508 15.0843 183.026 13.8796 183.846 12.9599C184.687 12.0171 185.882 11.346 187.398 11.4905L187.208 13.4815C186.464 13.4106 185.857 13.7093 185.339 14.2911C184.799 14.896 184.399 15.7707 184.18 16.6669L182.237 16.1918ZM187.399 11.4906C188.372 11.584 189.184 12.0347 189.71 12.8701C190.199 13.6472 190.378 14.6579 190.378 15.7824H188.378C188.378 14.8232 188.217 14.2526 188.017 13.9359C187.855 13.6775 187.629 13.5219 187.208 13.4814L187.399 11.4906ZM190.378 15.7824V26.9181H188.378V15.7824H190.378ZM189.378 25.9181H194.54V27.9181H189.378V25.9181ZM193.54 26.9181V18.6259H195.54V26.9181H193.54ZM193.54 18.6259C193.54 17.6491 193.632 16.8685 193.871 16.07L195.787 16.644C195.617 17.2093 195.54 17.7875 195.54 18.6259H193.54ZM193.851 16.1447C194.31 14.0364 195.952 11.4832 198.829 11.4832V13.4832C197.344 13.4832 196.179 14.852 195.806 16.5693L193.851 16.1447ZM198.829 11.4832C199.822 11.4832 200.747 11.7812 201.338 12.6835C201.853 13.4703 201.99 14.5551 201.99 15.7824H199.99C199.99 14.6054 199.836 14.0407 199.665 13.7789C199.569 13.6327 199.414 13.4832 198.829 13.4832V11.4832ZM201.99 15.7824V24.172H199.99V15.7824H201.99ZM201.99 24.172C201.99 24.9959 202.176 25.3688 202.358 25.5507C202.539 25.732 202.909 25.9181 203.729 25.9181V27.9181C202.656 27.9181 201.657 27.6802 200.942 26.9629C200.227 26.2463 199.99 25.2461 199.99 24.172H201.99ZM203.729 25.9181H206.142V27.9181H203.729V25.9181ZM205.142 26.9178L205.146 14.9256L207.146 14.9263L207.142 26.9185L205.142 26.9178ZM205.146 14.926C205.146 12.6558 204.644 11.1266 203.819 10.1732C203.017 9.24666 201.769 8.70437 199.896 8.70437V6.70437C202.167 6.70437 204.044 7.37759 205.331 8.86422C206.595 10.324 207.146 12.4055 207.146 14.926H205.146ZM199.896 6.70437H199.897V8.70437H199.896V6.70437ZM154.034 21.0311C153.952 21.1316 153.314 21.7861 152.321 22.4199C151.318 23.0599 149.852 23.7438 148.137 23.7438V21.7438C149.327 21.7438 150.415 21.2631 151.245 20.7338C152.084 20.1984 152.557 19.679 152.49 19.7609L154.034 21.0311ZM148.137 23.7438C146.621 23.7438 145.046 23.2793 143.833 22.235C142.597 21.1707 141.819 19.572 141.819 17.4886H143.819C143.819 19.0346 144.377 20.0635 145.138 20.7194C145.923 21.3954 147.007 21.7438 148.137 21.7438V23.7438ZM141.819 17.4886C141.819 15.6991 142.413 14.1119 143.499 12.9644C144.589 11.8128 146.118 11.165 147.857 11.165V13.165C146.631 13.165 145.64 13.6123 144.952 14.3391C144.26 15.07 143.819 16.1446 143.819 17.4886H141.819ZM147.857 11.165C148.444 11.165 149.082 11.2681 149.627 11.4765C150.1 11.6574 150.821 12.0415 151.047 12.8092L149.129 13.3749C149.161 13.4842 149.215 13.5126 149.176 13.481C149.138 13.4508 149.055 13.3991 148.912 13.3445C148.626 13.2348 148.234 13.165 147.857 13.165V11.165ZM151.056 12.8428L151.082 12.9409L149.145 13.4393L149.119 13.3412L151.056 12.8428ZM151.071 12.9031C151.179 13.2626 151.365 13.4032 151.521 13.4783C151.711 13.5701 151.901 13.5789 151.939 13.5789V15.5789C151.742 15.5789 151.217 15.5523 150.651 15.2793C150.051 14.9895 149.442 14.4358 149.155 13.4771L151.071 12.9031ZM151.94 13.5789L154.748 13.5819L154.746 15.5819L151.938 15.5789L151.94 13.5789ZM153.747 14.5819V12.1234H155.747V14.5819H153.747ZM153.747 12.1234C153.747 11.0199 153.077 10.1936 151.889 9.58944C150.688 8.97921 149.13 8.70459 147.857 8.70459V6.70459C149.356 6.70459 151.243 7.01801 152.795 7.8065C154.358 8.60111 155.747 9.98416 155.747 12.1234H153.747ZM147.857 8.70459C142.445 8.70459 138.631 12.4268 138.631 17.5281H136.631C136.631 11.2474 141.417 6.70459 147.857 6.70459V8.70459ZM138.631 17.5281C138.631 22.636 142.408 26.3435 147.749 26.3435V28.3435C141.361 28.3435 136.631 23.7973 136.631 17.5281H138.631ZM147.749 26.3435C152.385 26.3435 154.894 23.2774 154.841 23.3468L156.42 24.5736C156.315 24.7096 153.289 28.3435 147.749 28.3435V26.3435ZM154.855 23.3288L155.003 23.1473L156.554 24.4101L156.406 24.5916L154.855 23.3288ZM154.921 24.2944L152.698 20.5997L154.411 19.5683L156.635 23.263L154.921 24.2944ZM154.284 20.7675L153.992 21.0798L152.532 19.7127L152.824 19.4004L154.284 20.7675Z" fill="black" mask="url(#path-8-inside-2)"/>
</svg>
