<svg width="206" height="28" viewBox="0 0 206 28" fill="none" xmlns="http://www.w3.org/2000/svg">
<path d="M129.254 26.7448C129.254 26.7448 133.773 28 139.544 28C145.695 28 148.542 27.3154 148.542 27.3154V22.7517C148.542 22.7517 145.467 23.3605 141.177 23.3605C137.418 23.3605 135.102 22.8657 135.102 22.8657V16.4011H146.759V11.8374H135.102V5.6769C135.102 5.6769 137.38 5.25823 140.798 5.25823C144.633 5.25823 148.087 5.86684 148.087 5.86684V1.2651C148.087 1.2651 145.05 0.618362 140.113 0.618362C133.545 0.618362 129.254 1.79821 129.254 1.79821V26.7448ZM45.9454 16.3625C45.7931 16.7433 45.6041 17.4659 45.4901 17.8844C45.3765 17.4659 45.1863 16.7433 45.0348 16.3625L39.87 3.09081C38.9968 0.88522 37.6305 0.618362 35.1243 0.618362C34.2506 0.618362 32.4655 0.732643 32.4655 0.732643L29.8079 27.6196H35.6939L36.9844 9.59399L42.5661 23.2462C42.9844 24.311 43.8192 24.7295 45.4901 24.7295C47.1602 24.7295 47.9962 24.311 48.4136 23.2462L53.9952 9.59399L55.2865 27.6196H61.1714L58.5138 0.732643C58.5138 0.732643 56.7289 0.618362 55.8562 0.618362C53.3501 0.618362 51.9834 0.88522 51.1095 3.09081L45.9454 16.3625ZM16.4802 21.8772C15.2271 22.3718 12.1889 23.3605 9.94913 23.3605C7.51872 23.3605 5.69634 22.5239 5.69634 19.8615C5.69634 17.542 6.94868 16.2111 10.2913 16.0969L16.4802 15.8688V21.8772ZM12.9867 0.618362C7.74665 0.618362 3.64573 1.91173 2.05076 2.7106L3.30404 7.12187C3.30404 7.12187 7.32955 5.6769 11.2778 5.6769C14.6574 5.6769 16.4038 6.62722 16.4038 9.97372V11.8757H11.2778C2.58258 11.8757 0 15.8688 0 20.2804C0 26.1363 4.55703 28 8.69583 28C13.5181 28 16.3284 25.9847 16.6697 25.9847C16.9359 25.9847 17.923 27.049 22.3271 27.049V8.41475C22.3271 2.82488 18.8722 0.618362 12.9867 0.618362ZM83.4614 21.8772C82.2079 22.3718 79.1704 23.3605 76.9306 23.3605C74.4998 23.3605 72.677 22.5239 72.677 19.8615C72.677 17.542 73.9305 16.2111 77.2718 16.0969L83.4614 15.8688V21.8772ZM79.9673 0.618362C74.7271 0.618362 70.6266 1.91173 69.0319 2.7106L70.2849 7.12187C70.2849 7.12187 74.3104 5.6769 78.2586 5.6769C81.6382 5.6769 83.3848 6.62722 83.3848 9.97372V11.8757H78.2586C69.5637 11.8757 66.981 15.8688 66.981 20.2804C66.981 26.1363 71.538 28 75.6771 28C80.4992 28 83.3091 25.9847 83.6508 25.9847C83.9167 25.9847 84.9038 27.049 89.3085 27.049V8.41475C89.3085 2.82488 85.8531 0.618362 79.9673 0.618362ZM173.111 20.9263C171.706 21.6105 168.669 22.7517 165.897 22.7517C161.871 22.7517 161.188 20.9263 161.188 16.7433V0.846601H160.314C158.986 0.846601 156.024 1.07472 155.302 1.22729V17.5039C155.302 24.6157 157.049 28 164.263 28C169.769 28 172.997 25.8707 173.224 25.8707C173.3 25.8707 175.199 27.049 178.998 27.049V1.22729C178.58 1.15115 175.73 0.846601 174.287 0.846601H173.111V20.9263ZM185.95 27.049C185.95 27.049 189.595 28 194.683 28C199.506 28 205.581 26.3649 205.581 19.8242C205.581 15.5641 202.429 13.7389 197.303 11.8757C194.531 10.8487 192.177 9.93591 192.177 8.03426C192.177 7.12187 192.861 5.33466 196.391 5.33466C199.695 5.33466 203.075 6.8555 203.075 6.8555L204.556 2.48236C203.568 1.98787 200.34 0.618362 195.86 0.618362C191 0.618362 186.253 3.20477 186.253 8.41475C186.253 13.7775 191.114 15.4124 194.91 16.6677C197.493 17.542 199.657 18.4552 199.657 20.1661C199.657 21.8385 198.746 23.2845 194.379 23.2845C190.81 23.2845 187.013 22.4861 187.013 22.4861L185.95 27.049ZM103.737 5.71455C104.686 5.5246 106.548 5.25823 108.408 5.25823C112.66 5.25823 116.003 7.65421 116.003 14.1199C116.003 20.3946 114.369 23.3605 107.877 23.3605C105.788 23.3605 103.737 23.0562 103.737 23.0562V5.71455ZM108.674 0.618362C105.332 0.618362 100.7 1.189 97.8518 2.21563V27.2011C100.206 27.6962 104.611 28 107.687 28C118.167 28 122.23 23.8926 122.23 14.1199C122.23 5.6769 117.065 0.618362 108.674 0.618362Z" fill="#1B69BC"/>
</svg>
