<svg width="206" height="28" viewBox="0 0 206 28" fill="none" xmlns="http://www.w3.org/2000/svg">
<path d="M18.7228 19.4838C17.6581 20.5944 15.4208 22.3683 11.0786 22.3683C4.87208 22.3683 0 18.2406 0 11.4299C0 4.59456 4.91623 0.511101 11.0983 0.511101C15.4404 0.511101 17.8102 2.33413 18.3646 2.90906L16.8388 7.01221C16.4364 6.48153 14.1795 4.79603 11.3878 4.79603C7.79625 4.79603 5.05359 7.18911 5.05359 11.3414C5.05359 15.4888 7.93361 17.8426 11.3877 17.8426C14.0225 17.8426 15.9311 16.8008 17.0792 15.6018L18.7228 19.4838ZM35.645 21.99H30.7092V14.0491C30.7092 12.2063 30.4638 10.6092 28.4031 10.6092C26.3424 10.6092 25.6997 12.3193 25.6997 14.56V21.99H20.8032V0.820657H25.6997V5.86234C25.6997 7.39058 25.6748 9.05643 25.6748 9.05643C26.4549 7.70017 27.8925 6.59453 30.1298 6.59453C34.5162 6.59453 35.6446 9.38567 35.6446 13.0711L35.645 21.99ZM53.5042 15.6018H42.7592C42.98 17.7738 44.6188 18.7762 46.6157 18.7762C48.588 18.7762 50.2906 17.9065 51.1541 17.3315L53.0823 19.8819C52.5966 20.2602 50.5996 22.3487 45.9042 22.3487C41.253 22.3487 37.843 19.4642 37.843 14.447C37.843 9.43481 41.5179 6.59457 45.9926 6.59457C50.4672 6.59457 53.573 9.5675 53.573 13.9802C53.573 14.7124 53.5042 15.6018 53.5042 15.6018ZM49.0051 12.8254C48.9873 11.4495 47.9649 9.78862 45.9042 9.78862C43.8877 9.78862 42.8476 11.3856 42.7789 12.8254H49.0051ZM69.3911 21.99H64.6908L64.6025 20.3929C63.9598 21.0367 62.743 22.3241 60.2849 22.3241C57.6256 22.3241 54.7898 20.8843 54.7898 17.5084C54.7898 14.1374 57.8906 13.0072 60.6823 12.8697L64.4946 12.7174V12.3833C64.4946 10.7863 63.3612 9.96563 61.3937 9.96563C59.4655 9.96563 57.5373 10.8305 56.7621 11.317L55.4766 8.12288C56.7621 7.47916 59.1319 6.59464 61.9432 6.59464C64.7595 6.59464 66.3983 7.23347 67.5954 8.344C68.768 9.45456 69.4108 10.9189 69.4108 13.4693V21.9901L69.3911 21.99ZM64.5142 15.3364L62.1003 15.4887C60.594 15.5575 59.7059 16.2013 59.7059 17.3315C59.7059 18.5059 60.6627 19.1938 62.0119 19.1938C63.3416 19.1938 64.2296 18.329 64.5142 17.8179V15.3364ZM81.6179 22.3487C79.3806 22.3487 77.786 21.5231 76.8341 20.103V27.5624H71.9376V6.85991H76.5888L76.5675 8.79109H76.6312C77.7401 7.45941 79.3592 6.56996 81.6603 6.56996C86.0024 6.56996 88.7745 9.98517 88.7745 14.4274C88.7496 18.9089 86.0024 22.3487 81.6161 22.3487H81.6179ZM80.1999 10.452C78.1196 10.452 76.6772 12.049 76.6772 14.3782C76.6772 16.7124 78.1196 18.3094 80.1999 18.3094C82.3048 18.3094 83.7669 16.7124 83.7669 14.3782C83.7669 12.049 82.3293 10.452 80.1999 10.452ZM100.252 4.21618C100.252 4.21618 99.433 3.95088 98.5008 3.95088C97.0632 3.95088 96.6854 4.7715 96.6854 5.92628V6.90416H99.9433V10.6093H96.6854V21.99H91.7447V10.6093H89.8165V6.90416H91.7447V6.01472C91.7447 4.48648 92.0537 3.04182 92.9418 2.04426C93.8691 1.02217 95.3116 0.422666 97.2595 0.422666C99.0748 0.422666 100.473 0.820692 100.473 0.820692L100.252 4.21618ZM102.735 0.820657H107.627V22.0145H102.735V0.820657ZM112.945 5.10559C111.287 5.10559 110.153 4.08349 110.153 2.55525C110.153 1.0467 111.287 0 112.945 0C114.608 0 115.737 1.0467 115.737 2.55525C115.737 4.10806 114.608 5.10559 112.945 5.10559ZM110.507 6.85991H115.403V21.99H110.507V6.85991ZM134.371 18.9286C134.371 22.1914 133.552 24.0784 132.065 25.4739C130.584 26.8744 128.567 27.872 125.108 27.872C121.61 27.872 118.818 26.4076 117.778 25.6312L119.79 22.3487C120.678 23.0121 122.984 24.0538 125 24.0538C127.017 24.0538 128.032 23.4101 128.567 22.8548C129.097 22.2799 129.494 21.1939 129.494 19.8376V19.3512H129.431C128.499 20.5502 127.036 21.5035 124.686 21.5035C120.987 21.5035 117.552 18.9286 117.552 14.049C117.552 9.16455 120.987 6.59453 124.686 6.59453C127.238 6.59453 128.675 7.76896 129.475 8.81074H129.539L129.475 6.87955H134.371L134.371 18.9286ZM126.104 10.4323C123.936 10.4323 122.537 12.0294 122.537 14.0932C122.537 16.1768 123.911 17.7738 126.104 17.7738C128.278 17.7738 129.627 16.1768 129.627 14.0932C129.627 12.0294 128.278 10.4323 126.104 10.4323ZM152.074 21.99H147.133V14.0491C147.133 12.2063 146.888 10.6092 144.827 10.6092C142.766 10.6092 142.124 12.3193 142.124 14.56V21.99H137.227V0.820657H142.124V5.86234C142.124 7.39058 142.106 9.05643 142.106 9.05643C142.881 7.70017 144.319 6.59453 146.556 6.59453C150.942 6.59453 152.076 9.38567 152.076 13.0711L152.074 21.99ZM164.192 10.6093H160.846V16.0441C160.846 17.3315 161.023 17.6411 161.268 17.9065C161.489 18.1522 161.798 18.2848 162.441 18.2848C163.216 18.2848 163.903 18.0195 163.903 18.0195L164.148 21.8573C163.771 21.9458 162.441 22.3487 160.645 22.3487C158.894 22.3487 157.745 21.8131 156.97 20.9286C156.195 20.0392 155.906 18.7763 155.906 16.4667V10.6093H153.757V6.90419H155.906V2.77648H160.846V6.87962H164.192V10.6093ZM176.463 21.017C175.355 21.8818 173.848 22.3487 171.832 22.3487C169.575 22.3487 167.18 21.6362 165.453 20.0145L167.293 17.1104C168.51 18.1522 170.551 18.9531 171.768 18.9531C172.985 18.9531 173.848 18.6386 173.848 17.6657C173.848 16.6878 171.635 16.2013 171.081 15.9998C170.507 15.8476 169.639 15.6018 168.932 15.2922C168.221 14.9777 166.386 14.0244 166.386 11.3169C166.386 8.36846 168.952 6.56996 172.121 6.56996C175.291 6.56996 177.062 7.74439 177.926 8.43236L176.331 11.3169C175.467 10.6535 173.76 9.85248 172.519 9.85248C171.346 9.85248 170.703 10.167 170.703 10.963C170.703 11.764 171.881 12.1375 172.921 12.4274C173.961 12.7369 174.427 12.8942 175.07 13.1399C175.732 13.3806 176.508 13.7836 177.042 14.2701C177.528 14.7566 178.259 15.7345 178.259 17.3315C178.234 18.9089 177.572 20.1276 176.463 21.017Z" fill="#2B303D"/>
<path d="M204.671 10.0493C203.474 9.60703 202.208 9.38099 200.923 9.40555L197.69 9.43052L191.086 1.3274C190.934 1.15053 190.732 1.04248 190.492 1.04248H189.295C188.961 1.04248 188.716 1.39622 188.848 1.70585L191.841 9.49449L187.057 9.7844L185.463 7.5878C185.262 7.29789 184.953 7.14064 184.619 7.14064H183.731C183.446 7.14064 183.245 7.45515 183.333 7.74014L184.486 11.4698L183.378 15.2192C183.289 15.5091 183.49 15.8187 183.775 15.8187H184.683C185.016 15.8187 185.325 15.6418 185.527 15.3764L187.077 13.1553L191.866 13.4648L189.005 21.278C188.892 21.5875 189.118 21.9414 189.471 21.9414H190.644C190.889 21.9414 191.086 21.8333 191.243 21.6565L197.714 13.4453L200.947 13.4203C202.208 13.4203 203.45 13.1796 204.622 12.7323C205.113 12.5555 205.491 12.1132 205.555 11.5825C205.643 10.8699 205.265 10.295 204.671 10.0493Z" fill="#FFD400"/>
</svg>
