<svg width="50" height="49" viewBox="0 0 50 49" fill="none" xmlns="http://www.w3.org/2000/svg">
<ellipse cx="12.277" cy="44.2338" rx="8.47426" ry="3.873" fill="#0A8ED8"/>
<path d="M12.277 40.3608C7.59679 40.3608 3.80273 42.0948 3.80273 44.2338C7.56907 48.1068 18.3031 47.1847 20.7512 44.2338C20.7512 42.0948 16.9572 40.3608 12.277 40.3608Z" fill="#0069A4"/>
<path d="M24.1417 26.7131C24.1417 33.2319 13.9726 45.156 12.0894 45.156C10.2062 45.156 0.0371094 33.2319 0.0371094 26.7131C0.0371094 20.1942 5.4331 14.9097 12.0894 14.9097C18.7457 14.9097 24.1417 20.1942 24.1417 26.7131Z" fill="#02375D"/>
<path d="M12.0894 14.9097C5.4331 14.9097 0.0371094 20.1942 0.0371094 26.7131C0.0371094 32.0687 6.90071 41.0724 10.3945 44.1153C18.4922 37.7788 29.0379 22.8401 12.0894 14.9097Z" fill="#34A5E4"/>
<ellipse cx="12.088" cy="26.7129" rx="4.5196" ry="4.42629" fill="white"/>
<ellipse cx="39.7309" cy="23.7003" rx="6.62051" ry="3.01233" fill="#0A8ED8"/>
<path d="M39.7309 20.688C36.0745 20.688 33.1104 22.0367 33.1104 23.7003C36.0528 26.7127 44.4388 25.9954 46.3514 23.7003C46.3514 22.0367 43.3873 20.688 39.7309 20.688Z" fill="#0069A4"/>
<path d="M48.9997 10.0735C48.9997 15.1437 41.055 24.418 39.5838 24.418C38.1126 24.418 30.168 15.1437 30.168 10.0735C30.168 5.00329 34.3836 0.893066 39.5838 0.893066C44.784 0.893066 48.9997 5.00329 48.9997 10.0735Z" fill="#02375D"/>
<path d="M39.5838 0.893066C34.3836 0.893066 30.168 5.00329 30.168 10.0735C30.168 14.239 35.5302 21.2419 38.2597 23.6086C44.586 18.6802 52.8248 7.06118 39.5838 0.893066Z" fill="#34A5E4"/>
<ellipse cx="39.5856" cy="10.0735" rx="3.53094" ry="3.44267" fill="white"/>
<path d="M31.6735 23.3936H30.162C27.5646 23.3936 25.459 25.4991 25.459 28.0965V28.0965C25.459 30.6938 27.5646 32.7994 30.162 32.7994H42.1515C45.309 32.7994 47.8687 35.3591 47.8687 38.5167V38.5167C47.8687 41.6743 45.309 44.234 42.1515 44.234H22.0693" stroke="#1EA4E9" stroke-width="2.65714" stroke-linecap="round" stroke-dasharray="4.38 4.38"/>
</svg>
