<svg width="40" height="43" viewBox="0 0 40 43" fill="none" xmlns="http://www.w3.org/2000/svg">
<path fill-rule="evenodd" clip-rule="evenodd" d="M13.1104 24.41C13.6114 23.5962 14.6987 23.3054 15.539 23.7604L6.23944 38.8665C5.87773 38.3707 5.26986 38.0454 4.58097 38.0454C3.79544 38.0454 3.11525 38.4684 2.78525 39.0847L1.06863 38.1553C0.0300047 37.5929 -0.310018 36.3216 0.309163 35.3158L5.12781 27.4885C5.74699 26.4827 7.0909 26.1232 8.12952 26.6856L10.8145 28.1394L13.1104 24.41Z" fill="#34A5E4"/>
<path d="M5.87666 39.9287C5.87666 40.5327 5.34053 41.0992 4.58138 41.0992C3.82223 41.0992 3.2861 40.5327 3.2861 39.9287C3.2861 39.3247 3.82223 38.7583 4.58138 38.7583C5.34053 38.7583 5.87666 39.3247 5.87666 39.9287Z" stroke="#132450" stroke-width="1.42571"/>
<path d="M11.9175 22.276C11.2692 23.4919 11.7294 25.0032 12.9454 25.6514C14.1613 26.2997 15.6725 25.8395 16.3208 24.6236L11.9175 22.276ZM36.1411 21.1706C37.4827 21.4852 38.8253 20.6526 39.1398 19.311C39.4543 17.9695 38.6218 16.6269 37.2802 16.3124L36.1411 21.1706ZM31.2435 17.4597L30.674 19.8888L31.2435 17.4597ZM17.3452 17.5811L19.1294 19.325L17.3452 17.5811ZM26.0509 12.9818L24.3442 14.8017L26.0509 12.9818ZM16.3208 24.6236L19.1891 19.2436L14.7858 16.896L11.9175 22.276L16.3208 24.6236ZM19.1294 19.325L23.5334 14.8193L19.9649 11.3314L15.5609 15.8371L19.1294 19.325ZM24.3442 14.8017L28.562 18.7573L31.9755 15.1176L27.7577 11.1619L24.3442 14.8017ZM30.674 19.8888L36.1411 21.1706L37.2802 16.3124L31.8131 15.0305L30.674 19.8888ZM28.562 18.7573C29.1546 19.3131 29.883 19.7033 30.674 19.8888L31.8131 15.0305C31.8739 15.0448 31.9299 15.0748 31.9755 15.1176L28.562 18.7573ZM19.1891 19.2436C19.1732 19.2734 19.1531 19.3009 19.1294 19.325L15.5609 15.8371C15.2536 16.1515 14.9926 16.5081 14.7858 16.896L19.1891 19.2436ZM23.9478 14.6449C24.095 14.6449 24.2368 14.701 24.3442 14.8017L27.7577 11.1619C26.7253 10.1937 25.3631 9.6549 23.9478 9.6549V14.6449ZM23.9478 9.6549C22.4486 9.6549 21.0128 10.2593 19.9649 11.3314L23.5334 14.8193C23.6425 14.7078 23.7918 14.6449 23.9478 14.6449V9.6549Z" fill="#132450"/>
<ellipse cx="23.8217" cy="4.9536" rx="4.95163" ry="4.9536" fill="#132450"/>
<rect width="9.03248" height="15.9003" rx="4.51624" transform="matrix(0.996651 -0.0817757 0.092884 0.995677 18.9434 11.9131)" fill="#132450"/>
<rect width="3.96431" height="18.2975" rx="1.98216" transform="matrix(0.89852 -0.438933 0.485544 0.874212 23.5264 26.2749)" fill="#132450"/>
<rect width="3.96431" height="18.2975" rx="1.98216" transform="matrix(-0.89852 -0.438933 -0.485544 0.874212 25.5615 26.2749)" fill="#132450"/>
</svg>
