<svg width="59" height="39" viewBox="0 0 59 39" fill="none" xmlns="http://www.w3.org/2000/svg">
<path d="M5.69336 32.5781V33.1193C5.69336 34.7761 7.0365 36.1193 8.69336 36.1193H29.8901" stroke="#02375D" stroke-width="2" stroke-linecap="round"/>
<path d="M4.98242 5.12451V20.5384C17.0808 20.5384 24.7885 17.7055 30.6025 14.5185V5.12451C30.6025 3.46766 29.2594 2.12451 27.6025 2.12451H7.98242C6.32557 2.12451 4.98242 3.46766 4.98242 5.12451Z" fill="#34A5E4"/>
<path d="M10.6758 31.1621H17.0808V38.2444L13.8783 36.8279L10.6758 38.2444V31.1621Z" fill="#007ABC"/>
<path d="M4.98242 33.2867V21.9551C17.0808 21.9551 22.4183 21.2469 30.6025 17.8232V30.2867C30.6025 31.9436 29.2594 33.2867 27.6025 33.2867H4.98242Z" fill="#02375E"/>
<path d="M37.0068 6.09095L47.3026 4.82057L52.0793 0.8602C54.1569 -0.731617 55.6828 1.63005 54.1379 2.87007L49.8939 6.47865L47.3346 15.2007L45.7898 16.4407L46.2585 9.27797C39.5567 13.375 22.514 22.2607 9.96349 21.2469C26.6946 20.064 38.6339 10.6202 42.7001 7.86152L35.5834 7.86152L37.0068 6.09095Z" fill="#052A60"/>
<path d="M8.54004 21.6009C16.3684 23.0174 29.6809 18.5206 31.8979 17.1819C25.5971 20.9866 -12.7263 31.8222 7.25823 14.8927C2.5417 19.2041 0.708226 22.6633 8.54004 21.6009Z" fill="#007ABC"/>
<rect x="9.25195" y="7.08203" width="17.0801" height="4.24935" rx="1" fill="white"/>
</svg>
