<svg width="206" height="52" viewBox="0 0 206 52" fill="none" xmlns="http://www.w3.org/2000/svg">
<path d="M122.903 32.3967H123.065L128.402 16.6843H135.518L126.461 39.848H118.86L109.317 16.6843H117.081L122.903 32.3967Z" fill="#37474D"/>
<path d="M81.4992 22.3543H74.5446V29.9676C74.5446 30.6155 74.5446 31.1014 74.7063 31.7494C74.7063 32.2353 74.8681 32.7213 75.1916 33.0453C75.3533 33.3692 75.8385 33.6932 76.3237 33.8552C76.8089 34.0172 77.4558 34.1791 78.2645 34.1791C78.7497 34.1791 79.2349 34.1791 79.8819 34.0172C80.5288 34.0172 81.014 33.6932 81.4992 33.5312V39.5246C80.6905 39.8486 79.7201 40.0105 78.7497 40.1725C77.7793 40.3345 76.9706 40.3345 76.0002 40.3345C74.7063 40.3345 73.4125 40.1725 72.2803 40.0106C71.1482 39.6866 70.1778 39.3626 69.3691 38.8767C68.5604 38.3907 67.9135 37.5808 67.4283 36.7709C66.9431 35.961 66.7814 34.8271 66.7814 33.5312V22.5163H61.7676V16.8469H66.7814V9.88159H74.5446V16.6849H81.4992V22.3543Z" fill="#37474D"/>
<path d="M83.6016 16.6848H90.7179V20.4104C91.5266 18.9526 92.3352 17.9807 93.4674 17.1708C94.4378 16.5228 95.8934 16.0369 97.349 16.0369H98.6429C99.1281 16.0369 99.4515 16.1988 99.775 16.1988V22.6782C99.2898 22.5162 98.8046 22.3542 98.3194 22.3542C97.8342 22.3542 97.349 22.1922 96.7021 22.1922C95.4082 22.1922 94.276 22.3542 93.4674 22.8402C92.6587 23.1641 92.0118 23.8121 91.6883 24.46C91.2031 25.1079 91.0414 25.9179 90.8796 26.8898C90.7179 27.8617 90.7179 28.8336 90.7179 29.9675V39.5245H83.6016V16.6848Z" fill="#37474D"/>
<path d="M104.951 14.4168C105.922 14.4168 106.892 14.0929 107.539 13.2829C108.348 12.473 108.671 11.6631 108.671 10.6912C108.671 9.7193 108.348 8.74739 107.539 8.09946C106.73 7.28954 105.922 6.96558 104.951 6.96558C103.981 6.96558 103.011 7.28954 102.364 8.09946C101.555 8.90938 101.231 9.7193 101.231 10.6912C101.231 11.6631 101.555 12.635 102.364 13.2829C103.011 13.9309 103.819 14.4168 104.951 14.4168Z" fill="#37474D"/>
<path d="M101.393 16.6843H108.509V39.686H101.393V16.6843Z" fill="#37474D"/>
<path d="M147.649 29.6429H145.709C144.9 29.6429 144.091 29.8049 143.444 29.9668C142.636 30.1288 141.989 30.4528 141.504 30.9387C141.018 31.4247 140.695 32.0726 140.695 32.7206C140.695 33.5305 141.018 34.1784 141.827 34.6644C142.474 35.1503 143.283 35.3123 144.091 35.3123C144.738 35.3123 145.385 35.1503 146.032 34.9883C146.679 34.8264 147.326 34.5024 147.811 34.1784C148.296 33.8545 148.782 33.3685 148.943 32.8825C149.267 32.3966 149.428 31.7487 149.428 30.9387V29.4809H147.649V29.6429ZM149.267 36.9321C148.458 38.228 147.326 39.0379 146.032 39.5239C144.738 40.0098 143.283 40.3338 141.827 40.3338C140.695 40.3338 139.724 40.1718 138.754 39.8478C137.784 39.5239 136.813 39.0379 136.166 38.552C135.358 37.904 134.872 37.2561 134.387 36.2842C133.902 35.4743 133.74 34.3404 133.74 33.2065C133.74 31.9106 134.064 30.7768 134.549 29.8049C135.034 28.833 135.681 28.185 136.49 27.5371C137.298 26.8892 138.269 26.4032 139.401 26.0792C140.533 25.7553 141.665 25.4313 142.797 25.2693C143.93 25.1073 145.062 24.9453 146.194 24.9453H149.428C149.428 23.6495 148.943 22.6776 148.135 21.8677C147.164 21.0577 146.194 20.7338 144.9 20.7338C143.768 20.7338 142.636 21.0577 141.665 21.5437C140.695 22.0296 139.886 22.6776 139.077 23.4875L135.358 19.5999C136.651 18.304 138.269 17.4941 140.048 16.8462C141.827 16.1982 143.606 15.8743 145.547 15.8743C147.649 15.8743 149.267 16.1982 150.722 16.6842C152.016 17.1701 153.148 17.9801 153.957 18.952C154.766 19.9239 155.251 21.2197 155.574 22.6776C155.898 24.1354 156.06 25.9173 156.06 27.6991V39.3619H149.59V36.9321H149.267Z" fill="#37474D"/>
<path d="M204.741 23.326C204.094 21.8682 203.286 20.5723 202.315 19.4384C201.345 18.3045 200.051 17.4946 198.595 17.0086C197.14 16.3607 195.684 16.1987 194.067 16.1987C192.449 16.1987 190.994 16.5227 189.538 17.0086C188.083 17.6566 186.95 18.4665 185.818 19.4384C184.848 20.5723 183.877 21.7062 183.392 23.326C182.745 24.7839 182.422 26.4037 182.422 28.3475C182.422 30.2913 182.745 31.9112 183.392 33.369C184.039 34.8269 184.848 36.1227 185.818 37.2566C186.789 38.3905 188.083 39.2004 189.538 39.6864C190.994 40.3343 192.449 40.4963 194.067 40.4963C195.684 40.4963 197.14 40.1723 198.595 39.6864C200.051 39.2004 201.183 38.2285 202.315 37.2566C203.286 36.1227 204.256 34.9889 204.741 33.369C205.388 31.9112 205.712 30.2913 205.712 28.3475C205.712 26.4037 205.388 24.7839 204.741 23.326ZM197.948 32.3971C196.978 33.531 195.846 34.0169 194.229 34.0169C192.611 34.0169 191.317 33.531 190.509 32.3971C189.538 31.2632 189.215 29.9674 189.215 28.1855C189.215 26.4037 189.7 25.1078 190.509 23.974C191.479 22.8401 192.611 22.3541 194.229 22.3541C195.846 22.3541 197.14 22.8401 197.948 23.974C198.919 25.1078 199.242 26.4037 199.242 28.1855C199.242 29.9674 198.757 31.4252 197.948 32.3971Z" fill="#37474D"/>
<path d="M174.821 16.8467V19.9244C174.821 19.9244 174.336 19.1144 173.85 18.7905C173.365 18.3045 172.88 17.9806 172.071 17.6566C171.424 17.3326 170.616 17.0087 169.807 16.8467C168.998 16.6847 168.028 16.5227 167.057 16.5227C165.44 16.5227 163.984 16.8467 162.691 17.4946C161.397 18.1425 160.265 18.9525 159.456 20.2483C158.647 21.3822 158.162 22.5161 157.839 24.1359C157.515 25.5938 157.353 27.0516 157.353 28.6715C157.353 30.4533 157.677 32.0731 158 33.531C158.486 34.9888 158.971 36.1227 159.779 37.2566C160.75 38.3905 162.044 39.2004 163.338 39.6864C164.793 40.3343 166.249 40.4963 168.028 40.4963C169.16 40.4963 170.292 40.1723 171.424 39.8484C172.718 39.3624 173.85 38.5525 174.174 37.4186V39.6864C174.174 41.3062 173.85 42.6021 172.88 43.736C171.909 44.8698 170.454 45.3558 168.19 45.3558C166.734 45.3558 165.764 45.3558 164.308 45.0318C163.014 44.7079 161.397 44.0599 160.265 43.25L156.868 48.2715C158.647 49.5674 160.426 50.3773 162.367 51.0252C164.308 51.5112 166.411 51.6732 168.351 51.6732C172.88 51.6732 176.115 50.5393 178.217 48.2715C180.481 46.0037 181.29 42.7641 181.29 38.3905V16.8467H174.821ZM173.203 32.3971C172.233 33.531 171.101 34.0169 169.483 34.0169C167.866 34.0169 166.572 33.531 165.764 32.3971C164.793 31.2632 164.47 29.9673 164.47 28.1855C164.47 26.4037 164.955 25.1078 165.764 23.974C166.734 22.8401 167.866 22.3541 169.483 22.3541C171.101 22.3541 172.395 22.8401 173.203 23.974C174.174 25.1078 174.497 26.4037 174.497 28.1855C174.497 29.9673 174.012 31.4252 173.203 32.3971Z" fill="#37474D"/>
<path d="M19.8796 44.0596C-0.660686 33.6926 2.41227 15.2265 7.74951 6.96533C6.2939 8.42318 5.00003 10.043 3.70615 11.8248C2.25054 14.2546 -1.30763 20.8959 0.794925 29.1571C2.73574 37.4183 8.55819 43.0877 13.2485 46.1654C20.6883 51.0249 27.9663 52.1588 32.9801 51.8348C40.5816 51.3489 45.5954 46.9753 48.1832 42.9257C49.6388 40.4959 50.4475 38.2282 50.6092 37.4183C49.8005 38.5521 40.0964 54.1026 19.8796 44.0596Z" fill="#C93F1F"/>
<path d="M33.6274 43.5731C33.3039 43.5731 32.9805 43.5731 32.4953 43.7351C28.2902 43.7351 23.5999 42.2773 20.3652 40.6574C17.9392 39.3615 14.7045 37.2558 12.2784 34.0161C0.148343 18.3037 15.9983 2.26729 20.3652 0.323486C19.5565 0.48547 18.5861 0.647454 17.4539 0.971421C14.8662 1.78134 11.1463 3.72514 7.74987 6.96482C7.26467 7.61275 6.77946 8.42267 6.29426 9.0706C4.67691 11.5004 1.44222 17.8177 3.2213 25.9169C5.16212 34.0161 10.8228 39.5235 15.3514 42.4392C22.6295 47.2988 29.584 48.2707 34.5978 47.9467C42.0376 47.4607 46.8896 43.0872 49.3157 39.3615C49.8009 38.7136 50.1243 38.0657 50.4478 37.4177C50.4478 37.0938 50.6095 36.9318 50.6095 36.9318C50.7713 36.2839 50.933 34.988 51.0947 34.664C51.58 31.4243 51.2565 28.1847 50.7713 25.431C49.9626 31.1004 45.434 42.4392 33.6274 43.5731Z" fill="#F39200"/>
<path d="M46.8888 15.5503C46.4036 14.7404 45.7567 13.7685 45.7567 13.6065C45.1097 12.7966 44.4628 11.8247 43.9776 11.1768C42.6837 9.55693 40.4194 9.39495 38.8021 10.6908C37.1847 11.9867 37.023 14.2545 38.1551 15.8743C39.6108 17.6561 40.4194 19.114 41.3898 21.3817C41.875 22.3536 42.6837 24.6214 43.1689 27.3751C43.4924 29.8049 43.8159 34.6644 41.2281 38.552C40.4194 39.8479 38.3169 42.6016 34.2735 43.4115C34.1118 43.4115 33.7883 43.5735 33.4648 43.5735H34.7587C41.2281 43.0875 45.5949 39.3619 47.6975 35.9603C49.3148 33.3685 49.9618 30.7768 49.9618 30.7768C50.1235 30.1289 50.2852 29.1569 50.2852 28.833C50.447 27.6991 50.6087 26.5652 50.447 25.4313C50.1235 24.1355 49.9618 23.0016 49.6383 22.0297C49.1531 19.5999 48.021 17.4941 46.8888 15.5503Z" fill="#007DB0"/>
<path d="M10.6606 30.9389C10.1754 29.805 9.69021 28.5091 9.36674 27.2133C8.88153 25.4314 8.7198 20.5719 11.4693 16.5223C14.5422 12.1488 17.9387 9.39505 25.8637 9.23307C28.4514 9.23307 30.3922 7.9372 30.7157 5.34546C31.0392 2.75372 29.2601 0.485951 26.5106 0.161984C25.5402 0 24.5698 0 23.5994 0C23.5994 0 22.3055 0 20.3647 0.323967C17.13 1.61984 12.7632 4.53554 9.85194 9.23307C8.55806 11.3389 5.48511 16.8463 7.26419 24.1356C8.23459 28.1852 10.1754 31.4248 12.4397 34.0166C11.7928 33.0447 11.1458 32.0728 10.6606 30.9389Z" fill="#007DB0"/>
</svg>
